<mxfile host="65bd71144e">
    <diagram id="4eGHYSi-XJrjrrhM6ZHs" name="zone.js vs signal">
        <mxGraphModel dx="718" dy="332" grid="1" gridSize="10" guides="1" tooltips="1" connect="1" arrows="1" fold="1" page="1" pageScale="1" pageWidth="850" pageHeight="1100" math="0" shadow="0">
            <root>
                <mxCell id="0"/>
                <mxCell id="1" parent="0"/>
                <mxCell id="2" value="Before" style="text;html=1;align=center;verticalAlign=middle;resizable=0;points=[];autosize=1;strokeColor=none;fillColor=none;shadow=1;" parent="1" vertex="1">
                    <mxGeometry x="110" y="45" width="60" height="30" as="geometry"/>
                </mxCell>
                <mxCell id="3" value="After" style="text;html=1;align=center;verticalAlign=middle;resizable=0;points=[];autosize=1;strokeColor=none;fillColor=none;" parent="1" vertex="1">
                    <mxGeometry x="460" y="45" width="50" height="30" as="geometry"/>
                </mxCell>
                <mxCell id="4" value="Zone.js" style="text;html=1;align=center;verticalAlign=middle;resizable=0;points=[];autosize=1;strokeColor=none;fillColor=none;" parent="1" vertex="1">
                    <mxGeometry x="110" y="90" width="60" height="30" as="geometry"/>
                </mxCell>
                <mxCell id="5" value="Signal" style="text;html=1;align=center;verticalAlign=middle;resizable=0;points=[];autosize=1;strokeColor=none;fillColor=none;" parent="1" vertex="1">
                    <mxGeometry x="455" y="90" width="60" height="30" as="geometry"/>
                </mxCell>
                <mxCell id="6" value="&quot;something might have changed&quot;" style="text;html=1;align=center;verticalAlign=middle;resizable=0;points=[];autosize=1;strokeColor=none;fillColor=none;" parent="1" vertex="1">
                    <mxGeometry x="65" y="145" width="200" height="30" as="geometry"/>
                </mxCell>
                <mxCell id="7" value="Angular Change Detection" style="text;html=1;align=center;verticalAlign=middle;resizable=0;points=[];autosize=1;strokeColor=none;fillColor=none;" parent="1" vertex="1">
                    <mxGeometry x="85" y="200" width="160" height="30" as="geometry"/>
                </mxCell>
                <mxCell id="8" value="*checks entire component tree for changes*" style="text;html=1;align=center;verticalAlign=middle;resizable=0;points=[];autosize=1;strokeColor=none;fillColor=none;" parent="1" vertex="1">
                    <mxGeometry x="45" y="260" width="260" height="30" as="geometry"/>
                </mxCell>
                <mxCell id="9" value="*update views for anything that has changed*" style="text;html=1;align=center;verticalAlign=middle;resizable=0;points=[];autosize=1;strokeColor=none;fillColor=none;" parent="1" vertex="1">
                    <mxGeometry x="45" y="320" width="260" height="30" as="geometry"/>
                </mxCell>
                <mxCell id="10" value="&quot;this specific thing changed&quot;&amp;nbsp;" style="text;html=1;align=center;verticalAlign=middle;resizable=0;points=[];autosize=1;strokeColor=none;fillColor=none;" parent="1" vertex="1">
                    <mxGeometry x="370" y="145" width="180" height="30" as="geometry"/>
                </mxCell>
                <mxCell id="11" value="Angular change Detection" style="text;html=1;align=center;verticalAlign=middle;resizable=0;points=[];autosize=1;strokeColor=none;fillColor=none;" parent="1" vertex="1">
                    <mxGeometry x="390" y="200" width="160" height="30" as="geometry"/>
                </mxCell>
                <mxCell id="12" value="*update views for anything that has changed*" style="text;html=1;align=center;verticalAlign=middle;resizable=0;points=[];autosize=1;strokeColor=none;fillColor=none;" parent="1" vertex="1">
                    <mxGeometry x="330" y="260" width="260" height="30" as="geometry"/>
                </mxCell>
                <mxCell id="15" value="" style="edgeStyle=none;orthogonalLoop=1;jettySize=auto;html=1;exitX=0.482;exitY=1.07;exitDx=0;exitDy=0;exitPerimeter=0;entryX=0.37;entryY=0.167;entryDx=0;entryDy=0;entryPerimeter=0;" parent="1" source="4" target="6" edge="1">
                    <mxGeometry width="100" relative="1" as="geometry">
                        <mxPoint x="90" y="130" as="sourcePoint"/>
                        <mxPoint x="190" y="130" as="targetPoint"/>
                        <Array as="points"/>
                    </mxGeometry>
                </mxCell>
                <mxCell id="17" value="" style="edgeStyle=none;orthogonalLoop=1;jettySize=auto;html=1;exitX=0.37;exitY=1.17;exitDx=0;exitDy=0;exitPerimeter=0;entryX=0.337;entryY=0.036;entryDx=0;entryDy=0;entryPerimeter=0;" parent="1" source="6" target="7" edge="1">
                    <mxGeometry width="100" relative="1" as="geometry">
                        <mxPoint x="100" y="190" as="sourcePoint"/>
                        <mxPoint x="200" y="190" as="targetPoint"/>
                        <Array as="points"/>
                    </mxGeometry>
                </mxCell>
                <mxCell id="18" value="" style="edgeStyle=none;orthogonalLoop=1;jettySize=auto;html=1;exitX=0.337;exitY=1.053;exitDx=0;exitDy=0;exitPerimeter=0;" parent="1" source="7" edge="1">
                    <mxGeometry width="100" relative="1" as="geometry">
                        <mxPoint x="100" y="240" as="sourcePoint"/>
                        <mxPoint x="140" y="260" as="targetPoint"/>
                        <Array as="points"/>
                    </mxGeometry>
                </mxCell>
                <mxCell id="19" value="" style="edgeStyle=none;orthogonalLoop=1;jettySize=auto;html=1;exitX=0.361;exitY=1.086;exitDx=0;exitDy=0;exitPerimeter=0;entryX=0.361;entryY=0.02;entryDx=0;entryDy=0;entryPerimeter=0;" parent="1" source="8" target="9" edge="1">
                    <mxGeometry width="100" relative="1" as="geometry">
                        <mxPoint x="90" y="300" as="sourcePoint"/>
                        <mxPoint x="190" y="300" as="targetPoint"/>
                        <Array as="points"/>
                    </mxGeometry>
                </mxCell>
                <mxCell id="20" value="" style="edgeStyle=none;orthogonalLoop=1;jettySize=auto;html=1;exitX=0.465;exitY=1.153;exitDx=0;exitDy=0;exitPerimeter=0;" parent="1" source="5" edge="1">
                    <mxGeometry width="100" relative="1" as="geometry">
                        <mxPoint x="420" y="130" as="sourcePoint"/>
                        <mxPoint x="483" y="150" as="targetPoint"/>
                        <Array as="points"/>
                    </mxGeometry>
                </mxCell>
                <mxCell id="21" value="" style="edgeStyle=none;orthogonalLoop=1;jettySize=auto;html=1;" parent="1" edge="1">
                    <mxGeometry width="100" relative="1" as="geometry">
                        <mxPoint x="480" y="170" as="sourcePoint"/>
                        <mxPoint x="480" y="200" as="targetPoint"/>
                        <Array as="points"/>
                    </mxGeometry>
                </mxCell>
                <mxCell id="22" value="" style="edgeStyle=none;orthogonalLoop=1;jettySize=auto;html=1;exitX=0.568;exitY=1.053;exitDx=0;exitDy=0;exitPerimeter=0;" parent="1" source="11" edge="1">
                    <mxGeometry width="100" relative="1" as="geometry">
                        <mxPoint x="480" y="240" as="sourcePoint"/>
                        <mxPoint x="482" y="260" as="targetPoint"/>
                        <Array as="points"/>
                    </mxGeometry>
                </mxCell>
            </root>
        </mxGraphModel>
    </diagram>
    <diagram id="2HJzLm95ap8ADCR5kMNz" name="change-detection">
        <mxGraphModel dx="718" dy="332" grid="1" gridSize="10" guides="1" tooltips="1" connect="1" arrows="1" fold="1" page="1" pageScale="1" pageWidth="850" pageHeight="1100" math="0" shadow="0">
            <root>
                <mxCell id="0"/>
                <mxCell id="1" parent="0"/>
                <mxCell id="nsUFuoP9AuIUFq8MEFXM-2" value="View" style="rounded=1;whiteSpace=wrap;html=1;" vertex="1" parent="1">
                    <mxGeometry x="130" y="40" width="70" height="30" as="geometry"/>
                </mxCell>
                <mxCell id="nsUFuoP9AuIUFq8MEFXM-3" value="View" style="rounded=1;whiteSpace=wrap;html=1;" vertex="1" parent="1">
                    <mxGeometry x="70" y="100" width="70" height="30" as="geometry"/>
                </mxCell>
                <mxCell id="nsUFuoP9AuIUFq8MEFXM-4" value="View" style="rounded=1;whiteSpace=wrap;html=1;" vertex="1" parent="1">
                    <mxGeometry x="190" y="100" width="70" height="30" as="geometry"/>
                </mxCell>
                <mxCell id="nsUFuoP9AuIUFq8MEFXM-5" value="View" style="rounded=1;whiteSpace=wrap;html=1;" vertex="1" parent="1">
                    <mxGeometry x="70" y="180" width="70" height="30" as="geometry"/>
                </mxCell>
                <mxCell id="nsUFuoP9AuIUFq8MEFXM-6" value="View" style="rounded=1;whiteSpace=wrap;html=1;" vertex="1" parent="1">
                    <mxGeometry x="190" y="180" width="70" height="30" as="geometry"/>
                </mxCell>
                <mxCell id="nsUFuoP9AuIUFq8MEFXM-7" value="View" style="rounded=1;whiteSpace=wrap;html=1;" vertex="1" parent="1">
                    <mxGeometry x="70" y="250" width="70" height="30" as="geometry"/>
                </mxCell>
                <mxCell id="nsUFuoP9AuIUFq8MEFXM-9" value="Models as Signal&lt;br&gt;*&amp;nbsp;&lt;br&gt;*&lt;br&gt;*" style="rounded=1;whiteSpace=wrap;html=1;" vertex="1" parent="1">
                    <mxGeometry x="390" y="40" width="240" height="210" as="geometry"/>
                </mxCell>
                <mxCell id="nsUFuoP9AuIUFq8MEFXM-10" value="" style="edgeStyle=none;orthogonalLoop=1;jettySize=auto;html=1;entryX=0.5;entryY=0;entryDx=0;entryDy=0;exitX=0.41;exitY=1.139;exitDx=0;exitDy=0;exitPerimeter=0;" edge="1" parent="1" source="nsUFuoP9AuIUFq8MEFXM-2" target="nsUFuoP9AuIUFq8MEFXM-3">
                    <mxGeometry width="100" relative="1" as="geometry">
                        <mxPoint x="30" y="60" as="sourcePoint"/>
                        <mxPoint x="130" y="60" as="targetPoint"/>
                        <Array as="points"/>
                    </mxGeometry>
                </mxCell>
                <mxCell id="nsUFuoP9AuIUFq8MEFXM-11" value="" style="edgeStyle=none;orthogonalLoop=1;jettySize=auto;html=1;exitX=0.5;exitY=1;exitDx=0;exitDy=0;entryX=0.5;entryY=0;entryDx=0;entryDy=0;" edge="1" parent="1" source="nsUFuoP9AuIUFq8MEFXM-2" target="nsUFuoP9AuIUFq8MEFXM-4">
                    <mxGeometry width="100" relative="1" as="geometry">
                        <mxPoint x="220" y="60" as="sourcePoint"/>
                        <mxPoint x="320" y="60" as="targetPoint"/>
                        <Array as="points"/>
                    </mxGeometry>
                </mxCell>
                <mxCell id="nsUFuoP9AuIUFq8MEFXM-13" value="" style="edgeStyle=none;orthogonalLoop=1;jettySize=auto;html=1;exitX=0.5;exitY=1;exitDx=0;exitDy=0;entryX=0.5;entryY=0;entryDx=0;entryDy=0;" edge="1" parent="1" source="nsUFuoP9AuIUFq8MEFXM-3" target="nsUFuoP9AuIUFq8MEFXM-5">
                    <mxGeometry width="100" relative="1" as="geometry">
                        <mxPoint x="260" y="60" as="sourcePoint"/>
                        <mxPoint x="360" y="60" as="targetPoint"/>
                        <Array as="points"/>
                    </mxGeometry>
                </mxCell>
                <mxCell id="nsUFuoP9AuIUFq8MEFXM-14" value="" style="edgeStyle=none;orthogonalLoop=1;jettySize=auto;html=1;exitX=0.5;exitY=1;exitDx=0;exitDy=0;entryX=0.5;entryY=0;entryDx=0;entryDy=0;" edge="1" parent="1" source="nsUFuoP9AuIUFq8MEFXM-5" target="nsUFuoP9AuIUFq8MEFXM-7">
                    <mxGeometry width="100" relative="1" as="geometry">
                        <mxPoint x="280" y="150" as="sourcePoint"/>
                        <mxPoint x="380" y="150" as="targetPoint"/>
                        <Array as="points"/>
                    </mxGeometry>
                </mxCell>
                <mxCell id="nsUFuoP9AuIUFq8MEFXM-15" value="" style="edgeStyle=none;orthogonalLoop=1;jettySize=auto;html=1;exitX=0.5;exitY=1;exitDx=0;exitDy=0;entryX=0.5;entryY=0;entryDx=0;entryDy=0;" edge="1" parent="1" source="nsUFuoP9AuIUFq8MEFXM-4" target="nsUFuoP9AuIUFq8MEFXM-6">
                    <mxGeometry width="100" relative="1" as="geometry">
                        <mxPoint x="250" y="110" as="sourcePoint"/>
                        <mxPoint x="350" y="110" as="targetPoint"/>
                        <Array as="points"/>
                    </mxGeometry>
                </mxCell>
                <mxCell id="nsUFuoP9AuIUFq8MEFXM-16" value="" style="edgeStyle=none;orthogonalLoop=1;jettySize=auto;html=1;exitX=0;exitY=0.5;exitDx=0;exitDy=0;entryX=1;entryY=0.5;entryDx=0;entryDy=0;" edge="1" parent="1" source="nsUFuoP9AuIUFq8MEFXM-9" target="nsUFuoP9AuIUFq8MEFXM-5">
                    <mxGeometry width="100" relative="1" as="geometry">
                        <mxPoint x="260" y="60" as="sourcePoint"/>
                        <mxPoint x="360" y="60" as="targetPoint"/>
                        <Array as="points"/>
                    </mxGeometry>
                </mxCell>
                <mxCell id="nsUFuoP9AuIUFq8MEFXM-17" value="" style="edgeStyle=none;orthogonalLoop=1;jettySize=auto;html=1;exitX=0;exitY=0.5;exitDx=0;exitDy=0;entryX=1;entryY=0.5;entryDx=0;entryDy=0;" edge="1" parent="1" source="nsUFuoP9AuIUFq8MEFXM-9" target="nsUFuoP9AuIUFq8MEFXM-4">
                    <mxGeometry width="100" relative="1" as="geometry">
                        <mxPoint x="290" y="80" as="sourcePoint"/>
                        <mxPoint x="390" y="80" as="targetPoint"/>
                        <Array as="points"/>
                    </mxGeometry>
                </mxCell>
            </root>
        </mxGraphModel>
    </diagram>
</mxfile>